<svg width="33" height="15" viewBox="0 0 33 15" fill="none" xmlns="http://www.w3.org/2000/svg">
<g opacity="0.9">
<path d="M4.62744 11.9999H3.44678V4.17328L1.0791 5.04291V3.9765L4.44336 2.71332H4.62744V11.9999ZM14.1235 11.9999H8.06787V11.1557L11.2671 7.60101C11.741 7.06358 12.0669 6.62771 12.2446 6.2934C12.4266 5.95485 12.5176 5.60573 12.5176 5.24603C12.5176 4.76361 12.3716 4.36794 12.0796 4.05902C11.7876 3.7501 11.3983 3.59564 10.9116 3.59564C10.3276 3.59564 9.87272 3.7628 9.54688 4.09711C9.22526 4.42719 9.06445 4.88845 9.06445 5.4809H7.89014C7.89014 4.63031 8.16309 3.94265 8.70898 3.41791C9.25911 2.89317 9.99333 2.6308 10.9116 2.6308C11.7707 2.6308 12.4499 2.8572 12.9492 3.31C13.4486 3.75857 13.6982 4.35736 13.6982 5.10638C13.6982 6.01622 13.1185 7.09955 11.959 8.35638L9.4834 11.0414H14.1235V11.9999ZM15.4502 11.3842C15.4502 11.1811 15.5094 11.0118 15.6279 10.8764C15.7507 10.741 15.9326 10.6733 16.1738 10.6733C16.415 10.6733 16.597 10.741 16.7197 10.8764C16.8467 11.0118 16.9102 11.1811 16.9102 11.3842C16.9102 11.5789 16.8467 11.7418 16.7197 11.873C16.597 12.0042 16.415 12.0698 16.1738 12.0698C15.9326 12.0698 15.7507 12.0042 15.6279 11.873C15.5094 11.7418 15.4502 11.5789 15.4502 11.3842ZM15.4565 5.77924C15.4565 5.57611 15.5158 5.40684 15.6343 5.27142C15.757 5.13601 15.939 5.0683 16.1802 5.0683C16.4214 5.0683 16.6034 5.13601 16.7261 5.27142C16.853 5.40684 16.9165 5.57611 16.9165 5.77924C16.9165 5.9739 16.853 6.13682 16.7261 6.26801C16.6034 6.39919 16.4214 6.46478 16.1802 6.46478C15.939 6.46478 15.757 6.39919 15.6343 6.26801C15.5158 6.13682 15.4565 5.9739 15.4565 5.77924ZM20.2236 6.80756H21.106C21.6603 6.79909 22.0962 6.6531 22.4136 6.36957C22.731 6.08604 22.8896 5.70306 22.8896 5.22064C22.8896 4.13731 22.3501 3.59564 21.271 3.59564C20.7632 3.59564 20.3569 3.74164 20.0522 4.03363C19.7518 4.32139 19.6016 4.70437 19.6016 5.18256H18.4272C18.4272 4.45046 18.6938 3.8432 19.2271 3.36078C19.7645 2.87413 20.4458 2.6308 21.271 2.6308C22.1427 2.6308 22.8262 2.86143 23.3213 3.32269C23.8164 3.78396 24.064 4.42507 24.064 5.24603C24.064 5.64805 23.9328 6.03737 23.6704 6.414C23.4123 6.79063 23.0589 7.07204 22.6104 7.25824C23.1182 7.41905 23.5096 7.68565 23.7847 8.05804C24.064 8.43044 24.2036 8.88536 24.2036 9.42279C24.2036 10.2522 23.9328 10.9103 23.3911 11.3969C22.8494 11.8836 22.1449 12.1269 21.2773 12.1269C20.4098 12.1269 19.7031 11.892 19.1572 11.4223C18.6156 10.9526 18.3447 10.3326 18.3447 9.56244H19.5254C19.5254 10.0491 19.6841 10.4384 20.0015 10.7304C20.3188 11.0224 20.7441 11.1684 21.2773 11.1684C21.8444 11.1684 22.2782 11.0203 22.5786 10.7241C22.8791 10.4278 23.0293 10.0025 23.0293 9.44818C23.0293 8.91075 22.8643 8.49815 22.5342 8.21039C22.2041 7.92263 21.728 7.77452 21.106 7.76605H20.2236V6.80756ZM31.6113 8.05804C31.6113 9.43337 31.3765 10.4553 30.9067 11.124C30.437 11.7926 29.7028 12.1269 28.7041 12.1269C27.7181 12.1269 26.9881 11.801 26.5142 11.1494C26.0402 10.4934 25.7948 9.51589 25.7778 8.21674V6.64886C25.7778 5.29047 26.0127 4.28119 26.4824 3.62103C26.9521 2.96088 27.6885 2.6308 28.6914 2.6308C29.6859 2.6308 30.418 2.9503 30.8877 3.58929C31.3574 4.22406 31.5986 5.20583 31.6113 6.53461V8.05804ZM30.437 6.45209C30.437 5.45762 30.2974 4.73399 30.0181 4.28119C29.7388 3.82416 29.2965 3.59564 28.6914 3.59564C28.0905 3.59564 27.6525 3.82204 27.3774 4.27484C27.1024 4.72764 26.9606 5.42377 26.9521 6.36322V8.24213C26.9521 9.24082 27.096 9.97927 27.3838 10.4575C27.6758 10.9314 28.1159 11.1684 28.7041 11.1684C29.2839 11.1684 29.7134 10.9441 29.9927 10.4955C30.2762 10.047 30.4243 9.34027 30.437 8.37543V6.45209Z" fill="#27272A"/>
</g>
</svg>
